<?xml version="1.0" encoding="utf-8"?>
<!-- Generator: Adobe Illustrator 23.0.1, SVG Export Plug-In . SVG Version: 6.00 Build 0)  -->
<svg version="1.1" id="Laag_1" xmlns="http://www.w3.org/2000/svg" xmlns:xlink="http://www.w3.org/1999/xlink" x="0px" y="0px"
	 width="283.93px" height="284px" viewBox="0 0 283.93 284" style="enable-background:new 0 0 283.93 284;" xml:space="preserve">
<style type="text/css">
	.st0{fill:#FFFFFF;}
	.st1{fill:#E30613;}
</style>
<g id="JUMBO_LOGO_2_">
	<path class="st0" d="M204.77,0h-8.58c-15.47,0-67.44,0.05-67.44,0.05L110.47,0H83.35C37.39,0,0,37.52,0,83.65v142.31
		c0,6.13,3.03,11.81,8.1,15.2l0.38,0.25c3,2.01,6.5,3.07,10.1,3.07c4.24,0,8.37-1.49,11.62-4.2l0.39-0.32c0,0,4.95-3.73,8.17-6.17
		c0.18,0.13,9.48,7,9.56,7.06c3.38,2.46,7.3,3.76,11.32,3.76c0,0,0,0,0,0c1.42,0,2.8-0.16,4.13-0.47v15.48
		c0,13.45,10.9,24.39,24.31,24.39h49.31c13.4,0,24.3-10.94,24.3-24.39v-37.68h21.61v37.68c0,13.45,10.9,24.39,24.3,24.39h2.73h46.58
		h2.73c13.4,0,24.3-10.94,24.3-24.39V79.44C283.93,35.63,248.42,0,204.77,0z"/>
	<path class="st1" d="M204.77,14.07h-8.58c-0.35,0-1.62,0.03-1.62,0.07v33.5c0,14.01-11.32,25.38-25.3,25.38h-24.99
		c-16.32,0-29.55-8.83-29.55-29.66V14.08l-4.26-0.01H83.35c-38.29,0-69.33,31.15-69.33,69.57v142.31c0,0.01,0,0.03,0,0.03
		c0.06,3.5,3.99,6.14,7.65,3.48c0,0,14.87-10.97,17.45-12.91c2.66,2.01,17.42,12.89,17.42,12.89c3.66,2.66,7.59,0.02,7.65-3.48
		c0,0,0-23.29,0-39.3c0-3.66,2.69-6.67,5.97-7.06c4.12-0.49,7.62,2.73,7.62,6.78v73.23c0,5.7,4.61,10.32,10.29,10.32h49.31
		c5.68,0,10.28-4.62,10.28-10.31v-44.03c0-4.26,3.45-7.72,7.72-7.72h34.22c4.26,0,7.72,3.46,7.72,7.72v0l-0.01,0v44.03
		c0,5.7,4.6,10.31,10.28,10.31h2.73h46.58h2.73c5.68,0,10.28-4.62,10.28-10.31v-12.38c0-6.89,0-17.92,0-31.65
		c0-35.48,0-89.05,0-136.15C269.91,43.33,240.75,14.07,204.77,14.07z"/>
	<path class="st0" d="M52.44,100.35c0-3.32,2.69-6.03,6.01-6.03c3.32,0,6.02,2.71,6.02,6.03c0,3.34-2.7,6.05-6.02,6.05
		C55.13,106.39,52.44,103.69,52.44,100.35L52.44,100.35z"/>
	<path class="st1" d="M248.9,101.61"/>
	<g>
		<path class="st0" d="M120.61,148.08c-1.89,0-3.66-0.33-5.32-1c-1.66-0.67-3.11-1.59-4.34-2.77c-1.23-1.18-2.23-2.56-2.98-4.14
			c-0.76-1.58-1.18-3.29-1.26-5.11v-19.6c0-1.07,0.4-1.98,1.2-2.74c0.8-0.76,1.79-1.14,2.98-1.14c1.15,0,2.11,0.38,2.89,1.14
			c0.78,0.76,1.17,1.68,1.17,2.74v19.6c0,0.76,0.15,1.46,0.46,2.09c0.31,0.63,0.72,1.19,1.23,1.69c0.51,0.5,1.11,0.88,1.78,1.14
			c0.68,0.27,1.4,0.4,2.18,0.4c0.78,0,1.52-0.13,2.22-0.4c0.7-0.27,1.3-0.65,1.82-1.14c0.51-0.49,0.92-1.06,1.23-1.69
			c0.31-0.63,0.46-1.32,0.46-2.09v-19.6c0-1.07,0.4-1.98,1.2-2.74c0.8-0.76,1.79-1.14,2.98-1.14c1.15,0,2.12,0.38,2.92,1.14
			c0.8,0.76,1.2,1.68,1.2,2.74v19.6c-0.04,1.75-0.42,3.41-1.14,4.97c-0.72,1.56-1.7,2.94-2.95,4.14c-1.25,1.2-2.73,2.15-4.43,2.86
			C124.41,147.73,122.58,148.08,120.61,148.08z"/>
		<path class="st0" d="M169.02,111.86c1.64,0,3.19,0.3,4.63,0.89c1.44,0.6,2.71,1.42,3.79,2.46c1.08,1.04,1.95,2.24,2.62,3.6
			c0.66,1.36,1.03,2.82,1.11,4.38v20.55c0,1.08-0.4,1.98-1.2,2.71c-0.8,0.73-1.74,1.09-2.83,1.09c-1.16,0-2.14-0.36-2.92-1.09
			c-0.78-0.73-1.17-1.63-1.17-2.71v-20.1c0-1.08-0.39-1.98-1.17-2.71c-0.78-0.73-1.74-1.09-2.86-1.09c-1.12,0-2.09,0.36-2.89,1.09
			c-0.8,0.73-1.2,1.63-1.2,2.71v20.1c0,1.08-0.39,1.98-1.17,2.71c-0.78,0.73-1.73,1.09-2.86,1.09c-1.12,0-2.07-0.36-2.86-1.09
			c-0.78-0.73-1.17-1.63-1.17-2.71v-20.1c0-1.08-0.39-1.98-1.17-2.71c-0.78-0.73-1.75-1.09-2.92-1.09c-1.12,0-2.07,0.36-2.86,1.09
			c-0.78,0.73-1.17,1.63-1.17,2.71v20.1c0,1.08-0.39,1.98-1.17,2.71c-0.78,0.73-1.75,1.09-2.92,1.09c-1.12,0-2.08-0.36-2.86-1.09
			c-0.78-0.73-1.17-1.63-1.17-2.71V123.2c0-1.45,0.31-2.87,0.93-4.25c0.62-1.38,1.48-2.59,2.59-3.63c1.1-1.04,2.4-1.88,3.88-2.51
			c1.48-0.63,3.07-0.95,4.75-0.95c1.52,0,2.96,0.26,4.3,0.78c1.34,0.52,2.62,1.23,3.82,2.12c1.16-0.86,2.42-1.55,3.76-2.09
			C166,112.13,167.45,111.86,169.02,111.86z"/>
		<path class="st0" d="M207.65,128.09c1.17,0.97,2.11,2.18,2.82,3.63c0.71,1.44,1.06,2.99,1.06,4.64c0,1.57-0.32,3.05-0.97,4.41
			c-0.65,1.37-1.51,2.56-2.6,3.57c-1.09,1.01-2.37,1.82-3.84,2.42c-1.47,0.6-3.06,0.9-4.75,0.9h-8.05h-0.79
			c-0.93-0.22-1.71-0.68-2.33-1.38c-0.63-0.69-0.94-1.49-0.94-2.39v-21.75v-0.11c0-1.42,0.29-2.76,0.88-4.02
			c0.58-1.26,1.38-2.34,2.39-3.26c1.01-0.92,2.19-1.65,3.54-2.19c1.35-0.54,2.79-0.82,4.33-0.82c1.53,0,2.99,0.27,4.36,0.82
			c1.37,0.54,2.56,1.28,3.57,2.22c1.01,0.94,1.81,2.04,2.39,3.32c0.58,1.27,0.88,2.62,0.88,4.05
			C209.59,124.34,208.94,126.33,207.65,128.09z M198.39,119.32c-0.85,0-1.55,0.28-2.12,0.84c-0.57,0.56-0.85,1.22-0.85,1.97v2.81
			h2.97c0.85,0,1.56-0.27,2.15-0.81c0.58-0.54,0.88-1.21,0.88-1.99c0-0.75-0.29-1.41-0.88-1.97
			C199.95,119.6,199.23,119.32,198.39,119.32z M199.42,140c1.13,0,2.08-0.36,2.85-1.07c0.77-0.71,1.15-1.57,1.15-2.58
			c0-1.01-0.38-1.87-1.15-2.59c-0.77-0.71-1.72-1.07-2.85-1.07h-3.94v3.65V140H199.42z"/>
		<path class="st0" d="M228.99,111.73c1.86,0,3.59,0.33,5.21,0.98c1.61,0.66,3.04,1.56,4.27,2.73c1.23,1.16,2.22,2.51,2.97,4.05
			c0.75,1.54,1.16,3.2,1.24,5v10.34c-0.08,1.69-0.48,3.31-1.18,4.86c-0.71,1.55-1.67,2.92-2.88,4.1c-1.21,1.18-2.63,2.12-4.27,2.81
			c-1.63,0.69-3.42,1.04-5.36,1.04c-1.86,0-3.6-0.33-5.24-0.98c-1.63-0.66-3.08-1.56-4.33-2.73c-1.25-1.16-2.25-2.52-3-4.07
			c-0.75-1.55-1.16-3.23-1.24-5.03v-10.34c0.04-1.69,0.42-3.31,1.15-4.86c0.73-1.55,1.7-2.91,2.94-4.08
			c1.23-1.16,2.68-2.09,4.36-2.78C225.31,112.08,227.09,111.73,228.99,111.73z M228.99,140.06c0.77,0,1.48-0.13,2.15-0.39
			c0.67-0.26,1.25-0.64,1.76-1.12c0.5-0.49,0.91-1.04,1.21-1.66c0.3-0.62,0.45-1.3,0.45-2.05v-10.34c0-0.71-0.15-1.39-0.45-2.02
			c-0.3-0.64-0.71-1.19-1.21-1.66c-0.51-0.47-1.09-0.83-1.76-1.1c-0.67-0.26-1.38-0.39-2.15-0.39c-0.81,0-1.54,0.13-2.21,0.39
			c-0.67,0.26-1.26,0.63-1.79,1.1c-0.53,0.47-0.93,1.02-1.21,1.66c-0.28,0.64-0.42,1.31-0.42,2.02v10.34c0,1.46,0.54,2.7,1.63,3.71
			C226.08,139.55,227.42,140.06,228.99,140.06z"/>
		<g>
			<path class="st0" d="M69.78,160.6c-7.69,0-15.32-2.67-20.94-7.33c-6.36-5.28-9.87-12.81-9.87-21.2c0-2.29,1.85-4.14,4.14-4.14
				s4.14,1.85,4.14,4.14c0,13.15,11.61,20.25,22.53,20.25c5.75,0,10.99-1.92,14.75-5.42c4.33-4.03,6.62-10.11,6.62-17.58
				c0-16.97,0.15-50.48,0.16-50.81c0.01-2.28,1.86-4.12,4.14-4.12c0.01,0,0.01,0,0.02,0c2.29,0.01,4.13,1.87,4.12,4.16
				c0,0.34-0.16,33.83-0.16,50.78c0,9.84-3.2,18.01-9.26,23.65C84.88,157.89,77.64,160.6,69.78,160.6z"/>
		</g>
	</g>
</g>
<g>
	<path class="st1" d="M131.31,54c0-4.46,3.61-8.1,8.06-8.1c4.45,0,8.06,3.63,8.06,8.1c0,4.48-3.61,8.1-8.06,8.1
		C134.92,62.1,131.31,58.48,131.31,54L131.31,54z"/>
	<path class="st1" d="M161.85,54c0-4.46,3.6-8.1,8.06-8.1c4.46,0,8.07,3.63,8.07,8.1c0,4.48-3.61,8.1-8.07,8.1
		C165.44,62.1,161.85,58.48,161.85,54L161.85,54z"/>
	<path class="st1" d="M146.58,38.51c0-4.48,3.62-8.1,8.08-8.1c4.44,0,8.06,3.63,8.06,8.1c0,4.47-3.62,8.09-8.06,8.09
		C150.2,46.6,146.58,42.98,146.58,38.51L146.58,38.51z"/>
	<path class="st1" d="M131.31,22.99c0-4.46,3.61-8.08,8.06-8.08c4.47,0,8.07,3.62,8.07,8.08c0,4.47-3.61,8.11-8.07,8.11
		C134.92,31.1,131.31,27.46,131.31,22.99L131.31,22.99z"/>
	<path class="st1" d="M161.85,22.99c0-4.46,3.6-8.08,8.07-8.08c4.45,0,8.06,3.62,8.06,8.08c0,4.47-3.61,8.11-8.06,8.11
		C165.44,31.1,161.85,27.46,161.85,22.99L161.85,22.99z"/>
</g>
</svg>
